<svg width="430" height="135" viewBox="0 0 430 135" fill="none" xmlns="http://www.w3.org/2000/svg">
<path d="M414.709 3.77138V7.09082H417.807H420.905V3.77138V0.451931H417.807H414.709V3.77138Z" fill="white"/>
<path d="M335.484 3.99267V7.09082H337.919H340.353V3.99267V0.894524H337.919H335.484V3.99267Z" fill="white"/>
<path d="M343.01 3.99267V7.09082H345.665H348.321V3.99267V0.894524H345.665H343.01V3.99267Z" fill="white"/>
<path d="M130.564 11.9593V15.0574H135.212H139.859V29.663V44.2686H143.621H147.383V29.663V15.0574H152.03H156.677V11.9593V8.86115H143.621H130.564V11.9593Z" fill="white"/>
<path d="M161.104 26.5648V44.2686H172.611H184.118V41.1704V38.0723H176.152H168.185V33.8676V29.663H174.603H181.02V26.5648V23.4667H174.603H168.185V19.2621V15.0574H176.152H184.118V11.9593V8.86115H172.611H161.104V26.5648Z" fill="white"/>
<path d="M195.006 9.61377C194.873 10.0564 193.147 17.5804 191.2 26.3438C189.208 35.1071 187.526 42.7197 187.349 43.2508C187.128 44.2245 187.216 44.2688 190.668 44.2688C194.652 44.2688 194.253 44.6228 195.227 40.1527L195.758 37.6299H201.866C207.31 37.6299 207.974 37.7184 208.195 38.3823C208.284 38.8249 208.638 40.3297 208.948 41.7017L209.479 44.2688H212.975C214.878 44.2688 216.427 44.136 216.427 43.9147C216.427 43.7377 214.701 35.771 212.577 26.211L208.726 8.86136H201.955C195.935 8.86136 195.227 8.94988 195.006 9.61377ZM203.327 15.8101C203.415 16.2527 204.168 19.5721 204.92 23.2456C205.672 26.8749 206.425 30.2386 206.513 30.6369C206.735 31.3451 206.292 31.4336 201.866 31.4336H197.042L197.396 29.973C197.617 29.2206 198.414 25.5028 199.211 21.7851C200.627 15.0577 200.627 15.0577 201.866 15.0577C202.663 15.0577 203.15 15.3232 203.327 15.8101Z" fill="white"/>
<path d="M221.738 26.5648V44.2686H225.279H228.82V30.5482C228.82 22.9799 228.953 16.8278 229.174 16.8278C229.351 16.8278 230.767 21.6521 232.316 27.5828C233.91 33.4693 235.459 39.2673 235.813 40.418L236.432 42.5424L240.017 42.4097L243.647 42.2769L247.01 29.7073C248.869 22.7586 250.595 17.0049 250.861 16.9163C251.259 16.7836 251.392 20.28 251.392 30.5039V44.2686H254.933H258.473V26.5648V8.86115H252.321H246.169L243.425 20.2358C241.921 26.5206 240.548 32.23 240.371 32.9824L240.017 34.3102L239.531 32.5399C239.265 31.5661 238.026 26.5648 236.786 21.475C235.547 16.341 234.352 11.4282 234.087 10.4987L233.644 8.86115H227.713H221.738V26.5648Z" fill="white"/>
<path d="M51.7833 12.1807C51.4293 12.2693 49.6146 12.5791 47.8 12.8446C43.02 13.597 36.7352 15.7215 31.8667 18.1557C17.8807 25.193 7.17 37.9396 2.69982 52.9435C1.50481 56.9711 0 65.9557 0 69.2309C0 76.0026 3.00963 88.4394 6.24056 94.8128C11.8172 105.878 22.2624 116.146 33.0174 121.147C37.045 122.962 43.02 124.953 47.1361 125.75C51.7833 126.679 64.3087 126.547 68.9559 125.573C79.7109 123.227 88.9169 118.359 96.7507 111.012C114.72 93.9719 119.81 67.6819 109.497 45.1539C105.514 36.4791 98.5654 28.2026 90.5987 22.5374C83.65 17.5804 73.4261 13.5528 64.9283 12.4463C61.8302 12.0037 53.4652 11.8709 51.7833 12.1807ZM68.6904 13.7741C96.0426 19.218 115.428 44.0917 114.056 71.9307C113.082 91.6261 102.46 108.887 85.1548 118.846C80.8617 121.28 73.2933 124.024 67.8494 125.086C63.0694 126.016 52.9783 126.148 48.2426 125.307C40.6743 123.98 32.3093 120.572 25.5376 116.101C21.2444 113.269 13.5433 105.479 10.7107 101.142C-2.43426 81.2252 -2.25722 56.4843 11.1976 36.7446C12.4369 34.93 15.358 31.522 17.7037 29.2206C31.2028 15.6772 49.9244 10.012 68.6904 13.7741Z" fill="white"/>
<path d="M53.5527 19.4834C53.5527 21.2538 53.7298 22.5815 53.9953 22.5815C54.2609 22.5815 54.4379 21.9619 54.4379 21.2538C54.4379 19.4834 55.5444 19.5277 56.4296 21.298C57.359 23.0241 57.8016 22.6701 57.1377 20.7669C56.7837 19.749 56.7837 19.1736 57.1377 18.7752C57.9787 17.7573 56.8279 16.3852 55.1018 16.3852H53.5527V19.4834ZM56.2083 17.4917C56.8279 18.2441 56.5181 18.8638 55.3231 19.1736C54.615 19.3506 54.4379 19.1736 54.4379 18.4212C54.4379 16.7836 55.2788 16.341 56.2083 17.4917Z" fill="white"/>
<path d="M59.175 16.6951C58.998 16.8278 58.8652 18.2441 58.8652 19.7932V22.5815H60.6799C61.7421 22.5815 62.3617 22.4045 62.1847 22.139C62.0519 21.8734 61.4323 21.6964 60.8126 21.6964C59.8832 21.6964 59.7062 21.5193 59.8389 20.6784C59.9275 20.1473 60.2373 19.749 60.5913 19.8375C60.9454 19.926 61.5208 19.8375 61.9191 19.6604C62.4502 19.4391 62.2732 19.2621 61.2995 19.0851C60.37 18.908 59.9717 18.554 59.9717 17.9343C59.9717 17.2262 60.2373 17.0934 61.211 17.1819C61.8749 17.2704 62.406 17.1377 62.406 16.8721C62.406 16.341 59.6619 16.2082 59.175 16.6951Z" fill="white"/>
<path d="M48.2868 19.6162C47.6672 23.0685 47.6672 23.5996 48.2426 23.2455C48.5081 23.1127 48.6851 22.6259 48.6851 22.1833C48.6851 20.944 50.7211 20.7227 51.5177 21.8735C51.8276 22.4046 52.2259 22.6701 52.4029 22.5374C52.757 22.1833 49.8801 16.8279 49.3048 16.8279C48.995 16.8279 48.5524 18.0672 48.2868 19.6162ZM50.4555 20.0146C50.4555 20.1916 50.1457 20.3687 49.7916 20.3687C49.349 20.3687 49.1277 19.9261 49.1277 19.1294C49.172 17.9787 49.172 17.9787 49.7916 18.7753C50.1457 19.2622 50.4555 19.7933 50.4555 20.0146Z" fill="white"/>
<path d="M42.6652 18.731C41.2932 19.926 41.1162 21.5636 42.2226 23.2454C42.9308 24.3519 44.6126 24.706 46.206 24.0864C47.4895 23.5995 46.9141 23.0684 45.3651 23.334C43.3734 23.6438 42.4882 22.8914 42.4882 20.944C42.4882 19.6604 42.7095 19.3506 43.816 18.908C45.188 18.3769 45.5864 17.713 44.5241 17.713C44.1701 17.713 43.3291 18.1556 42.6652 18.731Z" fill="white"/>
<path d="M75.2404 21.2537C73.9127 22.5814 74.0454 24.9272 75.506 26.0779C76.701 27.0074 77.896 27.3172 77.896 26.6533C77.896 26.4763 77.3206 26.0779 76.5682 25.8124C75.4617 25.3698 75.2404 25.06 75.2404 23.7764C75.2404 21.6963 76.1256 21.0766 78.4714 21.4307C80.1975 21.652 80.2417 21.652 79.4893 21.0324C78.2501 20.1029 76.3027 20.1914 75.2404 21.2537Z" fill="white"/>
<path d="M67.2734 21.2537C67.2734 21.475 67.8045 21.6963 68.5127 21.6963C69.4421 21.6963 69.5749 21.6078 69.0438 21.2537C68.1586 20.6783 67.2734 20.6783 67.2734 21.2537Z" fill="white"/>
<path d="M80.3298 23.6882C79.2233 24.7504 78.8693 26.6978 79.5774 27.7158C80.1085 28.5125 81.8789 29.2649 82.4543 28.9551C85.0656 27.4502 85.8622 24.5734 84.0033 23.2899C82.587 22.3162 81.5691 22.4047 80.3298 23.6882ZM83.782 24.3963C84.9328 26.211 82.3657 29.2206 80.7724 27.8928C79.2676 26.6536 80.5954 23.2899 82.4543 23.5554C82.9411 23.6439 83.5165 23.998 83.782 24.3963Z" fill="white"/>
<path d="M35.4082 25.0158C34.7 25.8567 35.4082 25.8567 36.5589 25.0158C37.267 24.4847 37.267 24.3962 36.6917 24.3519C36.2933 24.3519 35.718 24.6617 35.4082 25.0158Z" fill="white"/>
<path d="M28.4594 26.5646C28.725 28.512 28.548 28.6448 27.2644 27.6711C26.335 26.963 25.2285 26.7859 25.2285 27.3613C25.2285 27.5383 25.9367 27.9809 26.7776 28.2907C27.6628 28.6006 28.7693 29.3972 29.3004 30.1054C29.8315 30.8135 30.4068 31.3004 30.6281 31.1676C30.8052 31.0348 30.5839 30.4152 30.097 29.7956C29.5217 29.0432 29.2118 27.9809 29.2118 26.7417C29.2118 25.5909 28.9906 24.7943 28.725 24.7943C28.3709 24.7943 28.2824 25.4139 28.4594 26.5646Z" fill="white"/>
<path d="M85.9064 28.1139C84.9327 29.1761 84.0918 30.3268 84.0918 30.6366C84.1361 30.9465 84.9327 30.3268 85.8622 29.2646C86.8359 28.2024 87.6325 27.4057 87.6325 27.4942C87.6325 27.5828 87.2342 28.7335 86.7474 29.9728C85.7294 32.7168 86.1277 32.9824 88.739 31.212C89.6242 30.5481 90.4651 30.1498 90.5536 30.2383C90.6422 30.3268 90.1111 31.212 89.3586 32.23C88.5177 33.3807 88.2079 34.0889 88.6062 34.0889C88.9161 34.0889 89.8455 33.0709 90.6422 31.8759C92.8109 28.5122 92.4568 27.9368 89.4029 29.8842C88.4292 30.5039 87.5883 30.9907 87.4555 30.9907C87.367 30.9907 87.544 30.2383 87.8981 29.3089C88.562 27.4057 88.6948 26.1222 88.1194 26.1222C87.8981 26.1222 86.9244 27.0074 85.9064 28.1139Z" fill="white"/>
<path d="M51.562 28.0696C51.3407 28.1581 49.6146 28.6007 47.8 28.9991C27.9718 33.5135 14.1187 53.1204 16.3316 73.4796C18.0577 89.4572 28.2374 102.602 43.1085 108.223C51.739 111.454 62.494 111.587 71.2574 108.533C84.3139 104.019 94.5377 92.6439 97.9014 78.9678C99.2735 73.3469 99.2292 65.0704 97.8572 59.538C94.8918 47.765 86.6153 37.4083 75.9046 32.0972C69.9296 29.1319 66.079 28.2467 58.4222 28.0696C54.8814 27.9811 51.8276 27.9811 51.562 28.0696ZM67.3183 29.5744C81.7911 33.3807 92.9001 44.2243 96.9277 58.4315C98.167 62.6804 98.6096 71.2667 97.8572 75.9582C95.1574 92.5996 82.2779 105.966 65.5037 109.418C60.1483 110.525 52.4472 110.303 47.1361 108.931C36.0713 106.01 26.2014 97.8665 21.0231 87.4213C17.7479 80.7824 17.0398 77.5515 17.0398 69.275C17.0398 63.3 17.2168 61.6624 18.0577 58.7413C22.5279 43.162 34.7435 32.0087 50.5883 28.9548C54.8814 28.1581 62.9366 28.468 67.3183 29.5744Z" fill="white"/>
<path d="M49.128 44.4897C49.128 49.0042 48.9952 52.6777 48.8624 52.6777C48.6411 52.6777 42.7547 48.6058 37.5321 44.8438L35.4961 43.3832L30.8932 49.8893C28.3704 53.5186 26.1574 56.661 26.0247 56.9266C25.8476 57.1921 29.1228 59.8034 34.0798 63.2556C38.7271 66.4866 42.4891 69.1864 42.4891 69.2749C42.4891 69.3634 40.4532 70.9125 37.9747 72.6386C35.4519 74.409 31.6898 77.0645 29.5654 78.5693L25.7148 81.3134L30.1408 87.6867C32.575 91.1832 34.8323 94.2814 35.0978 94.5912C35.4961 94.9895 37.0895 94.0601 42.1793 90.4751C45.7643 87.9523 48.8182 85.8721 48.9067 85.8721C49.0395 85.8721 49.128 89.5456 49.128 94.0601V102.248H57.5373H65.9465V94.0601C65.9465 89.5456 66.035 85.8721 66.1678 85.8721C66.3006 85.8721 69.3545 87.9523 72.9395 90.4751C77.9408 94.0601 79.5784 94.9895 79.9767 94.5912C80.7734 93.7945 89.4482 81.3577 89.3154 81.2249C89.2269 81.1364 85.6861 78.6579 81.4372 75.6925C77.1884 72.7271 73.4263 70.0273 73.1165 69.7175C72.6297 69.2749 74.0017 68.1242 80.6406 63.5212C85.1108 60.423 88.8728 57.7232 89.0941 57.5905C89.2711 57.4134 88.6515 56.1742 87.7221 54.8464C86.7926 53.5186 84.5797 50.4205 82.8535 47.9419L79.6669 43.4275L73.0723 48.0305C69.443 50.5975 66.3448 52.6777 66.2121 52.6777C66.0793 52.6777 65.9465 49.0042 65.9465 44.4897V36.3018H57.5373H49.128V44.4897ZM60.1043 44.534C61.1222 45.2421 61.1222 45.2421 60.8124 53.1645L60.5026 61.0869L62.3615 63.0786C65.0171 65.9555 64.7072 68.0356 61.1222 71.2666C59.7945 72.5058 59.7502 72.6386 59.7502 76.3564C59.7502 79.8086 59.883 80.3397 60.901 81.7118C61.6091 82.5969 62.1845 84.0132 62.273 85.164C62.4943 86.8901 62.3615 87.2442 60.9452 88.7932C59.706 90.1653 59.3519 91.0062 59.0863 93.1306C58.8208 95.5649 58.865 95.7862 60.1928 97.4238C61.6091 99.1942 61.5648 99.7253 60.1043 98.3975C59.3519 97.7336 59.2191 97.7336 58.865 98.2647C58.511 98.7958 58.4224 98.7516 58.4224 97.9992C58.4224 97.5123 57.9356 96.6271 57.316 96.0518C55.8997 94.724 55.8111 92.2455 57.1389 90.5636C57.9356 89.5456 58.0241 88.8818 57.9356 85.7393C57.8028 82.3756 57.7143 81.9773 56.3865 80.5168C55.6341 79.6316 54.7489 78.2153 54.4834 77.3301C54.0408 75.958 54.085 75.5155 54.8374 74.0549C55.3243 73.0812 56.0324 72.0632 56.3865 71.7534C56.9176 71.3108 57.0947 70.2929 57.0947 67.5488V63.9638L54.8374 62.636C51.7835 60.8656 50.4558 58.8297 50.4558 56.0856C50.4558 54.8906 50.6771 53.5186 50.9426 52.9875C51.8278 51.3056 53.6424 49.6238 54.926 49.3582C56.121 49.0927 56.2095 48.9156 56.2095 47.1453C56.2095 45.6405 56.4308 45.0651 57.1832 44.534C58.4224 43.6488 58.865 43.6488 60.1043 44.534Z" fill="white"/>
<path d="M53.3771 53.6515C52.8018 55.8202 53.1116 57.1922 54.3951 58.4758C55.1032 59.1839 55.8999 59.7593 56.1655 59.7593C56.4753 59.7593 56.6523 58.4315 56.6523 56.2185V52.6778H55.1475C53.9968 52.6778 53.5984 52.8991 53.3771 53.6515Z" fill="white"/>
<path d="M60.1934 66.3982C60.1934 67.1949 60.3704 67.6818 60.636 67.5047C60.9015 67.3719 61.0785 66.8408 61.0785 66.3982C61.0785 65.9556 60.9015 65.4245 60.636 65.2918C60.3704 65.1147 60.1934 65.6016 60.1934 66.3982Z" fill="white"/>
<path d="M56.6523 76.2237C56.6523 76.799 56.8736 77.5514 57.0949 77.9055C57.4048 78.3924 57.5375 78.1268 57.5375 76.8875C57.5375 76.0024 57.3605 75.2499 57.0949 75.2499C56.8736 75.2499 56.6523 75.6925 56.6523 76.2237Z" fill="white"/>
<path d="M59.3066 85.8722C59.3066 87.6868 59.4394 88.1294 59.8378 87.7311C60.1033 87.4655 60.3246 86.6246 60.3246 85.8722C60.3246 85.1198 60.1033 84.2788 59.8378 84.0133C59.4394 83.615 59.3066 84.0575 59.3066 85.8722Z" fill="white"/>
<path d="M57.7133 93.4407C57.5806 93.7063 57.6691 94.1489 57.9346 94.4144C58.2887 94.7685 58.4215 94.6357 58.4215 93.9276C58.4215 92.8654 58.2002 92.6883 57.7133 93.4407Z" fill="white"/>
<path d="M22.218 29.7073C20.8017 30.9908 20.4919 32.1416 21.9082 30.9908C22.4393 30.5482 22.8819 30.8138 24.5195 32.5842C25.7145 33.9119 26.5112 34.4873 26.5554 34.0447C26.5554 33.6906 25.8473 32.7169 25.0064 31.876C23.5015 30.4155 23.0147 29.2205 23.8999 29.2205C24.1654 29.2205 24.3425 28.9992 24.3425 28.7779C24.3425 28.0255 23.7671 28.291 22.218 29.7073Z" fill="white"/>
<path d="M91.6167 33.4249C89.6693 35.4165 89.4037 36.8328 91.3069 35.0625L92.3691 34.0888L93.1657 34.974C93.6083 35.4608 94.0509 35.7706 94.1837 35.6378C94.3165 35.5051 94.0509 35.0182 93.6083 34.5314C92.8559 33.6904 92.8117 33.5577 93.5198 32.8938C94.1837 32.1856 94.3165 32.2299 95.0689 32.8938C96.3524 34.0445 96.7507 33.779 95.6 32.5397C95.0246 31.9201 94.3165 31.4332 94.0509 31.4332C93.7854 31.4332 92.6789 32.3184 91.6167 33.4249Z" fill="white"/>
<path d="M18.4567 33.4691C17.5273 34.7526 17.6601 35.0625 20.4484 37.2754L22.2188 38.6475L23.3695 37.4967C24.7858 36.0804 24.299 35.328 22.8827 36.6558C22.086 37.4082 21.7319 37.4967 21.3336 37.0984C20.6254 36.3902 20.6697 35.6378 21.4664 34.9739C21.8647 34.6641 22.0417 34.3101 21.909 34.1773C21.7762 34.0445 21.2893 34.3101 20.8025 34.7526C20.0943 35.4165 19.8288 35.4608 19.2534 34.9739C18.6338 34.4428 18.678 34.2658 19.519 33.3363C20.2271 32.6282 20.3156 32.3184 19.873 32.3184C19.519 32.3184 18.8993 32.8495 18.4567 33.4691Z" fill="white"/>
<path d="M15.5349 37.0983C15.0038 37.8507 14.6055 38.5146 14.6055 38.6474C14.6055 39.1342 19.4297 42.4537 19.651 42.0996C19.7838 41.8783 19.3855 41.3915 18.7658 40.9489C17.7036 40.2407 17.6594 40.1522 18.3675 39.1342C19.1642 37.895 18.8101 37.7179 17.6151 38.7802C16.9955 39.3998 16.6857 39.3998 16.1988 38.9572C15.6234 38.5146 15.6234 38.2933 16.2431 37.3639C17.261 35.7705 16.6414 35.5492 15.5349 37.0983Z" fill="white"/>
<path d="M94.8034 36.8774C92.4577 39.3559 94.5821 42.6754 97.6803 41.3919C99.9817 40.4182 100.778 37.9839 99.2293 36.6119C98.0343 35.5496 95.9542 35.6824 94.8034 36.8774ZM99.0523 38.1167C99.3179 40.4182 95.8214 41.8787 94.7592 39.887C94.0067 38.5593 95.7329 36.6561 97.5475 36.8332C98.654 36.9217 98.9638 37.1872 99.0523 38.1167Z" fill="white"/>
<path d="M98.9633 42.3653C97.5027 43.2505 96.529 44.0472 96.8388 44.18C97.1044 44.2685 97.7683 44.0914 98.2994 43.8259C99.7599 43.0292 100.247 44.18 99.0518 45.4635C98.5207 46.0389 98.2551 46.6142 98.4322 46.7913C98.6092 47.0126 99.2288 46.6142 99.7599 45.9946C100.291 45.375 100.955 44.9324 101.265 45.0652C102.106 45.3307 103.124 44.3127 103.124 43.2063C103.079 42.3653 102.194 40.7277 101.752 40.7277C101.663 40.7277 100.38 41.4802 98.9633 42.3653ZM102.238 42.9407C102.238 44.1357 101.398 44.4898 100.557 43.6489C99.8927 43.0292 99.8927 42.8964 100.689 42.3211C101.707 41.5687 102.238 41.79 102.238 42.9407Z" fill="white"/>
<path d="M12.1263 42.1C11.9935 42.3213 12.6574 43.4721 13.5868 44.5786C14.5163 45.7293 15.4015 46.8358 15.5785 47.1013C15.7556 47.3669 16.0211 47.4111 16.1981 47.2341C16.3752 47.1013 16.2424 46.6145 15.9326 46.2604C15.0031 45.1097 16.0211 43.4278 17.4374 43.6934C18.1013 43.8261 18.5881 43.7376 18.5881 43.4721C18.5881 43.2065 17.4374 42.7639 16.0654 42.4984C14.6491 42.2328 13.277 41.923 12.9672 41.8345C12.6574 41.746 12.3033 41.8345 12.1263 42.1ZM15.2244 43.295C15.313 43.4721 15.2687 43.8704 15.0917 44.1802C14.8704 44.5786 14.5606 44.49 13.9409 43.8261C13.1443 42.9852 13.1443 42.941 14.0737 42.941C14.5606 42.941 15.0917 43.118 15.2244 43.295Z" fill="white"/>
<path d="M104.231 46.039C104.452 46.7914 104.142 47.1012 102.062 48.0749C100.69 48.6946 99.6718 49.4027 99.8046 49.624C99.9817 49.8453 101.044 49.5355 102.239 48.9159C104.762 47.6323 105.337 47.5438 105.337 48.4733C105.337 48.8273 105.558 49.1372 105.824 49.1372C106.134 49.1372 106.178 48.8273 106.001 48.3405C105.824 47.9422 105.47 47.057 105.249 46.3488C104.762 44.9768 103.788 44.667 104.231 46.039Z" fill="white"/>
<path d="M9.55977 46.7471C8.63033 49.1371 10.2237 50.5977 12.1268 49.0929C12.7907 48.5618 13.5874 48.2962 13.9414 48.429C14.6938 48.6945 14.8266 49.8453 14.1627 50.2436C13.5874 50.5977 13.5874 51.3501 14.1627 51.3501C15.0037 51.3501 15.6233 49.5355 15.0922 48.429C14.5168 47.1455 13.5874 47.1012 11.9498 48.2519C10.9761 48.9601 10.622 49.0044 10.2679 48.5618C9.95811 48.2077 9.95811 47.7651 10.1794 47.3668C10.7105 46.5258 10.7105 46.039 10.2237 46.039C10.0024 46.039 9.69255 46.3488 9.55977 46.7471Z" fill="white"/>
<path d="M10.6228 84.3673C10.6228 84.8542 10.3573 84.9427 9.78192 84.7657C8.58692 84.4116 8.10007 85.4295 9.07377 86.182C9.87044 86.7573 9.87044 86.7573 9.07377 87.3327C8.10007 88.0851 8.58692 89.1473 9.78192 88.8375C10.313 88.7047 10.6228 88.8375 10.6228 89.2358C10.6228 89.5899 11.0212 89.8555 11.508 89.8555C12.0391 89.8555 12.3932 89.5457 12.3932 89.1473C12.3932 88.572 12.526 88.5277 13.0128 88.926C13.8095 89.5899 14.3849 88.2179 13.6767 87.377C13.2784 86.8901 13.3227 86.5803 13.721 86.0934C14.3406 85.341 13.898 84.3673 13.0128 84.7214C12.6588 84.8542 12.3932 84.6771 12.3932 84.3231C12.3932 83.969 11.9949 83.6592 11.508 83.6592C11.0212 83.6592 10.6228 83.969 10.6228 84.3673Z" fill="white"/>
<path d="M102.681 84.3231C102.681 84.6771 102.416 84.8542 102.061 84.7214C101.176 84.3673 100.734 85.341 101.353 86.0934C101.752 86.5803 101.796 86.8901 101.398 87.377C100.689 88.2179 101.265 89.5899 102.061 88.926C102.548 88.5277 102.681 88.572 102.681 89.1473C102.681 89.5457 103.035 89.8555 103.566 89.8555C104.053 89.8555 104.451 89.5899 104.451 89.2358C104.451 88.8375 104.761 88.7047 105.292 88.8375C106.487 89.1473 106.974 88.0851 106.001 87.3327C105.204 86.7573 105.204 86.7573 106.001 86.182C106.974 85.4295 106.487 84.4116 105.292 84.7657C104.717 84.9427 104.451 84.8542 104.451 84.3673C104.451 83.969 104.053 83.6592 103.566 83.6592C103.079 83.6592 102.681 83.969 102.681 84.3231Z" fill="white"/>
<path d="M30.9811 105.7C30.9811 105.878 31.3795 106.276 31.8663 106.586C33.0613 107.294 33.0171 107.604 31.2024 110.436C29.2993 113.402 28.9452 114.198 29.6091 114.198C29.8747 114.198 31.0254 112.826 32.1319 111.1C34.0793 108.046 34.1236 108.002 35.1858 108.71C35.7611 109.064 36.3365 109.197 36.4693 108.976C36.6021 108.754 35.6284 107.825 34.3006 106.94C31.9106 105.391 30.9811 105.037 30.9811 105.7Z" fill="white"/>
<path d="M80.552 107.205C79.711 107.736 78.9144 108.223 78.8259 108.267C78.6931 108.4 82.2781 114.508 83.0305 115.482C83.2518 115.703 87.1909 113.136 87.1909 112.738C87.1909 112.206 86.6155 112.383 85.1107 113.313L83.6944 114.154L82.9862 113.18C82.0568 111.852 82.1453 111.321 83.4288 110.746C84.0485 110.48 84.5353 110.038 84.5353 109.772C84.5353 109.153 84.0042 109.241 82.8535 110.038C81.7912 110.79 81.2159 110.613 80.552 109.33C80.1536 108.621 80.3307 108.356 81.4372 107.781C82.1453 107.426 82.7649 106.895 82.7649 106.674C82.7649 106.01 82.2781 106.143 80.552 107.205Z" fill="white"/>
<path d="M35.628 112.649C34.6985 114.729 34.0346 116.5 34.1231 116.588C34.433 116.898 37.7081 118.182 38.1065 118.182C39.1244 118.182 38.3278 117.296 36.9557 116.854C35.1854 116.278 35.1854 116.323 36.0706 114.597C36.7344 113.357 36.7787 113.313 38.0622 113.977C39.567 114.774 39.8326 114.774 39.8326 114.154C39.8326 113.933 39.2572 113.49 38.5048 113.269C37.0443 112.738 36.8672 112.162 37.7524 110.923C38.3278 110.171 38.4163 110.171 39.7441 110.835C40.585 111.277 41.2046 111.366 41.3817 111.1C41.603 110.746 38.2393 108.887 37.4426 108.887C37.3541 108.887 36.5574 110.569 35.628 112.649Z" fill="white"/>
<path d="M76.1267 109.551C76.1267 109.684 76.7021 111.1 77.4102 112.649C78.1626 114.242 78.6495 115.526 78.561 115.526C78.4282 115.526 76.9676 114.508 75.2415 113.224C73.1613 111.764 71.9663 111.1 71.6565 111.41C71.1697 111.897 74.1793 119.509 74.8432 119.509C75.4628 119.509 75.33 119.022 74.135 116.057C73.5154 114.552 73.0286 113.224 73.0286 113.136C73.0286 113.003 74.3563 113.888 75.9497 115.083C78.6937 117.119 80.11 117.783 80.11 116.986C80.11 115.969 77.1447 109.33 76.7021 109.33C76.3923 109.33 76.1267 109.418 76.1267 109.551Z" fill="white"/>
<path d="M42.577 115.57C40.2313 119.111 39.7887 120.881 41.8246 118.535C42.7541 117.429 43.0196 117.385 44.2146 117.783C45.2326 118.137 45.5867 118.535 45.6752 119.642C45.7637 120.394 46.0735 121.058 46.3391 121.191C46.7817 121.324 46.8702 120.394 46.6489 117.208C46.5161 114.95 46.3391 112.826 46.2063 112.516C45.8522 111.321 44.79 112.162 42.577 115.57ZM45.5867 115.57C45.5867 117.208 45.4982 117.34 44.613 117.031C43.1967 116.632 43.1967 116.632 44.0819 115.127C45.1883 113.269 45.5867 113.401 45.5867 115.57Z" fill="white"/>
<path d="M65.6802 112.871C61.8296 114.42 63.0246 121.28 67.0965 121.28C69.3979 121.28 70.8142 119.686 70.8142 117.075C70.8142 115.393 70.5929 114.774 69.5307 113.711C68.2029 112.384 67.3178 112.207 65.6802 112.871ZM68.6898 114.552C69.1324 114.906 69.575 115.88 69.752 116.677C70.5044 120.749 65.7687 121.899 64.6622 117.916C64.1311 115.969 64.6622 114.331 66.0342 113.8C67.0965 113.402 67.4948 113.49 68.6898 114.552Z" fill="white"/>
<path d="M50.6775 113.844C50.2349 115.172 49.5268 121.368 49.7923 121.634C50.2349 122.12 50.8988 120.704 50.9431 119.067C50.9431 118.226 51.1201 117.031 51.2971 116.411C51.5627 115.482 51.7397 115.836 52.4036 118.535C52.8462 120.306 53.3773 121.855 53.5986 121.988C53.8199 122.12 54.7051 120.793 55.546 118.978L57.0509 115.747V118.934C57.0951 123.448 57.9803 123.581 58.0688 119.111C58.1131 117.119 58.1573 115.172 58.1573 114.773C58.2016 114.331 57.8918 113.933 57.4934 113.844C57.0066 113.755 56.3427 114.641 55.3247 116.942L53.8642 120.173L52.979 116.721C52.4036 114.464 51.9168 113.313 51.5184 113.313C51.1644 113.313 50.766 113.578 50.6775 113.844Z" fill="white"/>
<path d="M334.157 12.6672C329.599 13.9065 327.917 16.6948 327.607 23.6878C327.386 28.7333 328.005 32.5839 329.333 34.31C331.015 36.3902 332.608 36.877 338.76 37.0983L344.425 37.3196L344.16 39.0457C343.762 41.5685 342.744 43.2504 341.239 44.047C339.557 44.9322 321.72 45.0207 320.039 44.1356C316.94 42.5422 316.409 39.6211 317.737 30.8578C318.268 27.4498 318.667 24.5287 318.667 24.3517C318.667 24.1746 317.56 23.8648 316.144 23.6878C314.772 23.5107 313.4 23.2894 313.09 23.1567C312.426 22.9354 311.895 25.3696 310.877 33.2035C309.903 40.9932 310.523 44.2241 313.709 47.4993C316.631 50.5089 318.534 50.9072 330.351 50.9072C342.655 50.9072 344.16 50.5974 347.435 47.455C349.737 45.242 350.976 42.1882 350.976 38.8687V37.1869H361.155H371.335V24.573V11.9591H368.016H364.696V21.4748V30.9906H357.836H350.976V21.7404V12.5345L348.276 12.2246C343.717 11.782 336.724 11.9591 334.157 12.6672ZM344.337 24.573V30.9906H340.619C337.3 30.9906 336.724 30.8578 335.618 29.9283C334.423 28.9104 334.379 28.6448 334.379 25.1483C334.379 19.3504 335.441 18.2439 341.15 18.1996L344.337 18.1554V24.573Z" fill="white"/>
<path d="M385.941 26.5651V41.2149L384.835 42.2771C384.127 43.0295 383.286 43.3836 382.179 43.3836H380.586L380.719 46.349L380.851 49.3586L383.728 49.4914C388.995 49.6684 391.695 46.9686 392.669 40.3297L393.111 37.1873H411.213H429.315V24.839V12.5349L426.616 12.2251C421.924 11.7382 415.905 11.9153 413.205 12.6234C407.938 13.9954 406.212 16.4297 405.946 23.0243C405.858 25.3258 405.991 28.0699 406.212 29.0879L406.655 30.991H399.839H393.023V21.4753V11.9595H389.482H385.941V26.5651ZM421.836 18.1558C422.632 18.1558 422.676 18.5984 422.676 24.5734V30.991H418.029H413.426L413.072 29.3091C412.541 26.7864 412.674 22.0949 413.294 20.5016C414.09 18.6869 416.834 17.5804 419.755 17.9788C420.464 18.0673 421.393 18.1558 421.836 18.1558Z" fill="white"/>
<path d="M361.598 44.2686V47.3667H364.253H366.909V44.2686V41.1704H364.253H361.598V44.2686Z" fill="white"/>
<path d="M369.564 44.2686V47.3667H371.999H374.433V44.2686V41.1704H371.999H369.564V44.2686Z" fill="white"/>
<path d="M136.318 61.3081C136.318 63.2998 136.318 63.2998 137.867 63.2998C139.417 63.2998 139.417 63.2998 139.417 61.3081C139.417 59.3165 139.417 59.3165 137.867 59.3165C136.318 59.3165 136.318 59.3165 136.318 61.3081Z" fill="white"/>
<path d="M141.188 61.3081C141.188 63.2998 141.188 63.2998 142.737 63.2998C144.286 63.2998 144.286 63.2998 144.286 61.3081C144.286 59.3165 144.286 59.3165 142.737 59.3165C141.188 59.3165 141.188 59.3165 141.188 61.3081Z" fill="white"/>
<path d="M239 61.3081C239 63.2998 239 63.2998 240.549 63.2998C242.098 63.2998 242.098 63.2998 242.098 61.3081C242.098 59.3165 242.098 59.3165 240.549 59.3165C239 59.3165 239 59.3165 239 61.3081Z" fill="white"/>
<path d="M243.869 61.3081C243.869 63.2998 243.869 63.2998 245.418 63.2998C246.967 63.2998 246.967 63.2998 246.967 61.3081C246.967 59.3165 246.967 59.3165 245.418 59.3165C243.869 59.3165 243.869 59.3165 243.869 61.3081Z" fill="white"/>
<path d="M421.348 61.3081V63.2998H423.118H424.888V61.3081V59.3165H423.118H421.348V61.3081Z" fill="white"/>
<path d="M181.021 69.0535V78.3479H177.259H173.497V72.3729V66.3979H171.505H169.558L169.425 72.2402L169.292 78.1266L164.556 78.2594L159.776 78.3922V72.3729V66.3979H157.785H155.837L155.705 72.2402L155.572 78.1266H151.588H147.605L147.472 72.2844C147.34 65.2914 147.871 65.7783 140.125 65.9996C135.832 66.1766 134.858 66.3094 133.796 67.1061C131.937 68.4781 131.406 69.9829 131.406 73.922C131.406 77.8611 132.07 79.6314 133.973 80.8707C135.08 81.6231 137.78 81.6674 173.807 81.8002L212.445 81.8887V70.8239V59.759H210.232H208.019V69.0535V78.3479H204.744H201.469L201.292 74.4531C201.026 68.3896 198.99 65.9553 194.21 65.9553C191.378 65.9553 190.227 66.4864 187.66 68.8764L185.447 70.9566V65.3357V59.759H183.234H181.021V69.0535ZM142.692 69.7616C143.268 69.9829 143.401 70.8239 143.401 74.2318V78.4807L140.214 78.2594C136.319 77.9496 135.434 77.1529 135.434 73.9663C135.434 71.6205 136.319 70.0714 137.78 69.8059C139.373 69.4961 141.94 69.4961 142.692 69.7616ZM195.14 70.2042C196.556 71.2222 197.397 73.4352 197.397 76.135V78.3479H191.422C184.34 78.3479 184.296 78.3037 187.35 73.8777C190.006 69.9387 192.838 68.6109 195.14 70.2042Z" fill="white"/>
<path d="M217.756 70.8239V81.8887H219.748H221.739V70.8239V59.759H219.748H217.756V70.8239Z" fill="white"/>
<path d="M267.768 70.8239V81.8887H279.939H292.11V80.1183V78.3479H288.127C284.321 78.3479 284.144 78.3037 283.391 77.1529C282.904 76.4005 282.594 75.117 282.594 73.7892C282.594 71.9746 282.771 71.4435 283.834 70.5583C285.294 69.319 286.401 69.2305 289.012 70.16C290.03 70.514 290.959 70.8239 291.048 70.8239C291.136 70.8239 291.225 69.9387 291.225 68.8322C291.225 66.8848 291.181 66.8848 289.366 66.3537C286.799 65.6898 283.037 66.0439 281.621 67.1061C279.231 68.8764 278.611 70.2042 278.611 73.3909C278.611 75.0285 278.788 76.7989 278.965 77.33C279.319 78.3479 279.275 78.3479 275.557 78.3479H271.751V69.0535V59.759H269.759H267.768V70.8239Z" fill="white"/>
<path d="M311.498 68.9208L311.365 78.1268L306.85 78.2595L302.292 78.3923V72.3731V66.3981H300.079H297.866V75.604C297.866 85.341 297.777 85.8721 295.786 85.8721C294.856 85.8721 294.768 86.0934 294.768 87.8638C294.768 89.8555 294.768 89.8555 296.317 89.8555C299.68 89.8555 301.362 88.0851 302.07 83.7477L302.38 81.8888H308.975H315.569V70.824V59.7592H313.578H311.586L311.498 68.9208Z" fill="white"/>
<path d="M320.879 70.8239V81.8887H322.871H324.862V70.8239V59.759H322.871H320.879V70.8239Z" fill="white"/>
<path d="M365.582 70.8239V81.8887H379.081H392.58L392.536 76.4448C392.536 69.5846 392.093 68.2568 389.482 66.929C387.313 65.8668 383.02 65.6013 380.143 66.3979C378.727 66.7963 378.461 67.1061 378.019 68.8322C377.753 69.8944 377.532 72.4614 377.532 74.5416V78.3479H373.549H369.565V69.0535V59.759H367.574H365.582V70.8239ZM386.517 69.9829C388.021 70.6911 388.597 72.1516 388.597 75.5153V78.3922L385.189 78.2594L381.737 78.1266L381.604 74.4531C381.515 72.1074 381.648 70.514 382.002 70.1157C382.622 69.3633 385.056 69.319 386.517 69.9829Z" fill="white"/>
<path d="M345.223 64.1852C345.223 65.9113 345.267 65.9556 346.772 65.9556C348.277 65.9556 348.321 65.9113 348.321 64.1852C348.321 62.4591 348.277 62.4148 346.772 62.4148C345.267 62.4148 345.223 62.4591 345.223 64.1852Z" fill="white"/>
<path d="M350.09 64.1852C350.09 65.9113 350.134 65.9556 351.639 65.9556C353.144 65.9556 353.188 65.9113 353.188 64.1852C353.188 62.4591 353.144 62.4148 351.639 62.4148C350.134 62.4148 350.09 62.4591 350.09 64.1852Z" fill="white"/>
<path d="M398.112 65.8226C397.36 65.9553 397.227 66.2652 397.36 67.7257L397.537 69.4961H400.104C402.184 69.4961 402.848 69.6731 403.821 70.6026C405.326 71.9746 405.857 73.4352 405.857 76.1792V78.3479H400.768H395.678V80.1183V81.8887H412.762H429.846L429.669 75.3383C429.448 66.3094 428.872 65.6013 421.879 66.0881C416.568 66.4865 416.037 66.6635 416.037 68.2126V69.4961H420.153C422.764 69.4961 424.446 69.6731 424.8 70.0272C425.154 70.3813 425.331 72.0189 425.331 74.4531V78.3479H417.852H410.372L410.062 75.2498C409.398 68.8322 406.3 65.4242 401.21 65.557C400.015 65.6013 398.599 65.734 398.112 65.8226Z" fill="white"/>
<path d="M237.85 66.4422C237.142 66.6635 236.08 67.2831 235.504 67.9027C233.645 69.8944 233.512 77.1529 235.283 79.5429C236.832 81.6231 238.248 81.8444 250.862 81.8444L262.458 81.8887V74.1433V66.3979H260.466H258.475V72.3729V78.3922L254.403 78.2594L250.287 78.1266L250.154 72.3729C250.065 68.4781 249.844 66.5307 249.49 66.3094C248.782 65.8668 239.576 65.9553 237.85 66.4422ZM245.374 69.7616C245.949 69.9829 246.082 70.8239 246.082 74.2318V78.4807L242.895 78.2594C239.001 77.9496 238.115 77.1529 238.115 73.9663C238.115 71.6205 239.001 70.0715 240.461 69.8059C242.055 69.4961 244.622 69.4961 245.374 69.7616Z" fill="white"/>
<path d="M356.286 72.4172V78.4364L349.913 78.2594C341.813 78.0824 341.548 77.9053 341.769 73.1696L341.902 69.9387L340.441 69.6731C339.645 69.4961 338.892 69.4961 338.804 69.5846C338.45 69.9387 337.697 74.4089 337.697 76.135C337.697 78.4807 339.291 80.6494 341.459 81.269C342.566 81.6231 346.505 81.8444 351.772 81.8444L360.269 81.8887V74.1433V66.3979H358.278H356.286V72.4172Z" fill="white"/>
<path d="M153.58 86.5362C153.58 88.5278 153.58 88.5278 155.129 88.5278C156.678 88.5278 156.678 88.5278 156.678 86.5362C156.678 84.5445 156.678 84.5445 155.129 84.5445C153.58 84.5445 153.58 84.5445 153.58 86.5362Z" fill="white"/>
<path d="M158.447 86.5362C158.447 88.5278 158.447 88.5278 159.996 88.5278C161.545 88.5278 161.545 88.5278 161.545 86.5362C161.545 84.5445 161.545 84.5445 159.996 84.5445C158.447 84.5445 158.447 84.5445 158.447 86.5362Z" fill="white"/>
<path d="M169.514 86.5362V88.5278H171.284H173.054V86.5362V84.5445H171.284H169.514V86.5362Z" fill="white"/>
<path d="M256.703 86.5362C256.703 88.5278 256.703 88.5278 258.252 88.5278C259.801 88.5278 259.801 88.5278 259.801 86.5362C259.801 84.5445 259.801 84.5445 258.252 84.5445C256.703 84.5445 256.703 84.5445 256.703 86.5362Z" fill="white"/>
<path d="M261.129 86.5362V88.5278H262.899H264.67V86.5362V84.5445H262.899H261.129V86.5362Z" fill="white"/>
<path d="M185.004 99.3711V101.363H186.774H188.545V99.3711V97.3795H186.774H185.004V99.3711Z" fill="white"/>
<path d="M357.172 99.3711C357.172 101.363 357.172 101.363 358.721 101.363C360.27 101.363 360.27 101.363 360.27 99.3711C360.27 97.3795 360.27 97.3795 358.721 97.3795C357.172 97.3795 357.172 97.3795 357.172 99.3711Z" fill="white"/>
<path d="M362.041 99.3711C362.041 101.363 362.041 101.363 363.59 101.363C365.139 101.363 365.139 101.363 365.139 99.3711C365.139 97.3795 365.139 97.3795 363.59 97.3795C362.041 97.3795 362.041 97.3795 362.041 99.3711Z" fill="white"/>
<path d="M375.762 99.3711V101.363H377.753H379.745V99.3711V97.3795H377.753H375.762V99.3711Z" fill="white"/>
<path d="M198.281 109.329V120.394L205.717 120.35C210.231 120.35 213.772 120.129 214.878 119.775C216.295 119.332 217.003 119.332 218.463 119.819C220.013 120.35 234.22 120.438 250.728 119.996C251.215 119.996 253.65 120.084 256.172 120.217L260.687 120.438L260.643 114.331C260.643 110.967 260.51 107.426 260.333 106.453C260.023 104.726 259.934 104.682 258.253 104.682H256.482L256.659 110.746L256.792 116.853H255.464C252.764 116.853 252.72 116.765 252.72 111.277V106.231H250.773H248.825L248.648 110.613C248.516 115.526 247.763 117.031 245.683 116.765L244.532 116.632L244.399 111.41L244.267 106.231H242.319H240.328V111.542V116.853H230.9C225.678 116.853 221.296 116.721 221.163 116.544C220.986 116.411 221.65 115.393 222.624 114.331C224.704 112.118 225.279 110.834 225.279 108.4C225.279 106.718 225.147 106.585 223.288 105.744C218.773 103.753 214.303 103.753 209.567 105.789L207.708 106.585L208.063 109.329C208.328 111.852 208.549 112.295 210.453 114.198C212.931 116.721 212.798 116.853 206.868 116.853H202.707V107.559V98.2646H200.494H198.281V109.329ZM220.942 108.798C221.916 109.772 218.242 114.641 216.472 114.641C215.719 114.641 213.329 112.383 212.621 111.011C211.338 108.577 212.356 108.002 217.446 108.179C219.127 108.267 220.676 108.533 220.942 108.798Z" fill="white"/>
<path d="M277.064 107.559V116.854H274.851H272.638V109.772V102.691H270.425H268.212V109.772V116.854H266.22H264.229V118.624V120.395H272.859H281.49V109.33V98.2649H279.277H277.064V107.559Z" fill="white"/>
<path d="M286.357 109.33V120.395H288.349H290.341V109.33V98.2649H288.349H286.357V109.33Z" fill="white"/>
<path d="M317.339 110.215V122.209L316.277 123.271C313.931 125.617 309.328 124.997 307.956 122.165C307.248 120.66 307.336 117.96 308.222 113.18C308.443 112.029 308.399 111.985 306.496 111.985C304.238 111.985 304.327 111.808 303.619 117.606C303.132 121.324 303.176 121.811 303.973 123.669C305.301 126.591 307.735 128.051 311.674 128.272C316.985 128.582 320.304 126.591 321.411 122.342L321.942 120.394H357.482H393.022V109.329V98.2646H390.809H388.596V107.559V116.854H384.171H379.745V110.657V104.461H377.532H375.319V110.657V116.898L371.468 116.765L367.573 116.632L367.441 110.834L367.308 104.992L364.475 104.682C360.846 104.328 357.172 104.771 355.446 105.833C353.278 107.161 352.658 108.887 352.835 113.136L352.968 116.854H337.389H321.765V107.559V98.2646H319.552H317.339V110.215ZM363.369 112.649V116.898L360.403 116.765L357.438 116.632L357.04 115.083C356.553 113.18 356.995 109.993 357.881 109.108C358.323 108.666 359.43 108.444 360.979 108.444H363.369V112.649Z" fill="white"/>
<path d="M398.334 109.33V120.395H400.326H402.317V109.33V98.2649H400.326H398.334V109.33Z" fill="white"/>
<path d="M419.135 104.329C416.435 105.302 414.798 109.463 415.285 114.021C415.771 118.757 417.63 120.395 422.41 120.395C424.004 120.395 425.376 120.572 425.508 120.749C425.907 121.457 424.889 124.289 424.136 124.599C423.694 124.732 422.1 124.732 420.596 124.555L417.807 124.289V126.06C417.807 128.14 418.25 128.361 422.853 128.361C425.685 128.361 425.951 128.273 427.323 126.901C428.12 126.104 429.005 124.644 429.27 123.714C429.536 122.696 429.757 118.182 429.757 113.269V104.594L427.721 104.284C425.287 103.974 420.065 103.974 419.135 104.329ZM424.8 107.825C425.73 108.091 425.774 108.312 425.774 112.472V116.854H423.959C422.145 116.854 420.507 116.234 419.932 115.349C419.755 115.084 419.578 113.756 419.578 112.428C419.578 109.02 420.374 108.002 423.34 107.604C423.605 107.604 424.225 107.692 424.8 107.825Z" fill="white"/>
<path d="M184.163 104.948C180.313 105.701 178.543 108.976 179.118 114.331L179.383 116.854H165.398C157.652 116.854 150.925 116.677 150.305 116.456C149.331 116.057 149.11 116.19 148.313 117.518C147.251 119.332 147.65 119.819 150.526 120.306C152.341 120.616 152.474 120.749 152.341 121.944C152.12 124.422 151.013 124.821 144.905 124.821C138.444 124.821 136.673 124.289 135.611 122.032C135.036 120.837 134.991 120.041 135.301 117.872L135.7 115.172L133.973 114.907C133 114.729 132.026 114.774 131.849 114.951C131.318 115.482 130.831 121.413 131.185 122.74C131.583 124.422 133.619 126.635 135.655 127.52C137.16 128.229 138.621 128.361 144.728 128.361C151.19 128.361 152.208 128.273 153.448 127.476C155.262 126.37 156.192 124.953 156.59 122.563L156.944 120.616L175.4 120.483L193.856 120.395V112.694V105.037L191.156 104.727C187.881 104.417 186.73 104.417 184.163 104.948ZM189.784 112.517L189.652 116.633L186.863 116.765C184.208 116.898 184.075 116.854 183.632 115.659C182.924 113.8 183.367 109.772 184.34 109.064C184.827 108.71 186.244 108.445 187.527 108.445H189.917L189.784 112.517Z" fill="white"/>
<path d="M269.538 123.36C268.166 123.847 267.325 124.998 267.325 126.414C267.325 127.211 267.547 128.007 267.768 128.14C268.432 128.538 268.299 129.247 267.547 129.247C266.706 129.247 266.706 130.087 267.547 130.397C267.901 130.574 269.494 130.442 271.087 130.132C273.477 129.689 273.964 129.424 273.964 128.715C273.964 127.919 273.787 127.83 271.973 128.096C270.335 128.361 269.937 128.273 269.671 127.653C269.273 126.547 270.158 125.484 271.442 125.484C272.504 125.529 273.477 124.201 272.725 123.758C272.017 123.404 270.158 123.139 269.538 123.36Z" fill="white"/>
<path d="M140.303 133.008C140.303 135 140.303 135 141.852 135C143.401 135 143.401 135 143.401 133.008C143.401 131.017 143.401 131.017 141.852 131.017C140.303 131.017 140.303 131.017 140.303 133.008Z" fill="white"/>
<path d="M145.17 133.008C145.17 135 145.17 135 146.719 135C148.268 135 148.268 135 148.268 133.008C148.268 131.017 148.268 131.017 146.719 131.017C145.17 131.017 145.17 131.017 145.17 133.008Z" fill="white"/>
</svg>
