<svg width="87" height="87" viewBox="0 0 87 87" fill="none" xmlns="http://www.w3.org/2000/svg">
<path d="M39.2521 0.127625C38.9838 0.194725 37.6083 0.429565 36.2327 0.630859C32.6095 1.20119 27.8455 2.81153 24.1552 4.65672C13.5537 9.99099 5.43491 19.6531 2.04648 31.0261C1.14066 34.0791 0 40.8895 0 43.3721C0 48.5051 2.28132 57.9323 4.73039 62.7633C8.95754 71.1505 16.8751 78.9339 25.0274 82.7249C28.0804 84.1004 32.6095 85.6101 35.7295 86.214C39.2521 86.9185 48.7465 86.8178 52.2691 86.0798C60.4215 84.3017 67.3996 80.6113 73.3378 75.0422C86.9586 62.1259 90.8167 42.1979 82.9998 25.1215C79.9804 18.5459 74.7133 12.2723 68.6745 7.97806C63.4073 4.22059 55.6575 1.16764 49.2162 0.328918C46.8677 -0.00656891 40.527 -0.107216 39.2521 0.127625ZM52.0678 1.33539C72.801 5.46189 87.4954 24.3163 86.4554 45.4186C85.7173 60.3478 77.6656 73.4318 64.548 80.9803C61.2937 82.8255 55.5569 84.9056 51.4304 85.7107C47.8071 86.4152 40.158 86.5159 36.5682 85.8785C30.8314 84.872 24.4907 82.2887 19.3577 78.9003C16.1034 76.7532 10.2659 70.8486 8.11882 67.5608C-1.84519 52.4638 -1.71099 33.71 8.48786 18.7472C9.42723 17.3717 11.6414 14.7885 13.4195 13.0439C23.6519 2.77798 37.8431 -1.51627 52.0678 1.33539Z" fill="black"/>
<path d="M40.5938 5.66379C40.5938 7.00574 40.7279 8.01221 40.9292 8.01221C41.1305 8.01221 41.2647 7.54252 41.2647 7.00574C41.2647 5.66379 42.1034 5.69734 42.7744 7.03929C43.479 8.3477 43.8144 8.0793 43.3112 6.6367C43.0428 5.86508 43.0428 5.42895 43.3112 5.12701C43.9486 4.35538 43.0764 3.31537 41.768 3.31537H40.5938V5.66379ZM42.6067 4.15409C43.0764 4.72442 42.8415 5.1941 41.9357 5.42895C41.3989 5.56314 41.2647 5.42895 41.2647 4.85862C41.2647 3.61731 41.9022 3.28182 42.6067 4.15409Z" fill="black"/>
<path d="M44.854 3.55021C44.7198 3.65086 44.6191 4.72442 44.6191 5.89863V8.01221H45.9946C46.7998 8.01221 47.2695 7.87801 47.1353 7.67672C47.0347 7.47543 46.565 7.34123 46.0953 7.34123C45.3908 7.34123 45.2566 7.20703 45.3572 6.56961C45.4243 6.16702 45.6592 5.86508 45.9275 5.93218C46.1959 5.99928 46.6321 5.93218 46.934 5.79798C47.3366 5.63024 47.2024 5.49604 46.4643 5.36185C45.7598 5.22765 45.4579 4.95926 45.4579 4.48958C45.4579 3.9528 45.6592 3.85215 46.3972 3.91925C46.9005 3.98635 47.303 3.8857 47.303 3.68441C47.303 3.28182 45.223 3.18117 44.854 3.55021Z" fill="black"/>
<path d="M36.6027 5.76428C36.133 8.38109 36.133 8.78368 36.5691 8.51529C36.7704 8.41464 36.9046 8.0456 36.9046 7.71011C36.9046 6.77075 38.4479 6.603 39.0517 7.47527C39.2866 7.87786 39.5885 8.07915 39.7227 7.97851C39.9911 7.71011 37.8104 3.6507 37.3743 3.6507C37.1394 3.6507 36.804 4.59007 36.6027 5.76428ZM38.2466 6.06622C38.2466 6.20042 38.0117 6.33461 37.7433 6.33461C37.4078 6.33461 37.2401 5.99912 37.2401 5.39524C37.2736 4.52297 37.2736 4.52297 37.7433 5.12685C38.0117 5.49589 38.2466 5.89848 38.2466 6.06622Z" fill="black"/>
<path d="M32.3403 5.09303C31.3003 5.99885 31.1661 7.24015 32.0048 8.51501C32.5416 9.35373 33.8164 9.62212 35.0242 9.15244C35.9971 8.7834 35.561 8.38081 34.3868 8.58211C32.8771 8.81695 32.2061 8.24662 32.2061 6.77047C32.2061 5.79755 32.3738 5.56271 33.2126 5.22722C34.2526 4.82464 34.5545 4.3214 33.7493 4.3214C33.481 4.3214 32.8435 4.65689 32.3403 5.09303Z" fill="black"/>
<path d="M57.0339 7.00562C56.0274 8.01208 56.1281 9.79017 57.2352 10.6624C58.141 11.367 59.0468 11.6018 59.0468 11.0986C59.0468 10.9644 58.6107 10.6624 58.0403 10.4611C57.2016 10.1257 57.0339 9.89082 57.0339 8.9179C57.0339 7.3411 57.7049 6.87142 59.4829 7.13981C60.7913 7.30756 60.8249 7.30756 60.2546 6.83787C59.3152 6.13335 57.839 6.20044 57.0339 7.00562Z" fill="black"/>
<path d="M50.9941 7.00533C50.9941 7.17308 51.3967 7.34082 51.9335 7.34082C52.638 7.34082 52.7387 7.27372 52.3361 7.00533C51.6651 6.5692 50.9941 6.5692 50.9941 7.00533Z" fill="black"/>
<path d="M60.8911 8.8506C60.0524 9.65577 59.784 11.1319 60.3208 11.9035C60.7233 12.5074 62.0653 13.0778 62.5014 12.8429C64.4808 11.7023 65.0847 9.52158 63.6756 8.54866C62.6021 7.81059 61.8305 7.87769 60.8911 8.8506ZM63.5079 9.38738C64.3802 10.7629 62.4343 13.0442 61.2266 12.0377C60.0859 11.0984 61.0924 8.54866 62.5014 8.74996C62.8705 8.81705 63.3066 9.08544 63.5079 9.38738Z" fill="black"/>
<path d="M26.8396 9.85738C26.3029 10.4948 26.8396 10.4948 27.7119 9.85738C28.2487 9.45479 28.2487 9.38769 27.8126 9.35415C27.5106 9.35415 27.0745 9.58899 26.8396 9.85738Z" fill="black"/>
<path d="M21.5721 11.0315C21.7734 12.5076 21.6392 12.6083 20.6663 11.8702C19.9618 11.3334 19.123 11.1992 19.123 11.6353C19.123 11.7695 19.6598 12.105 20.2973 12.3399C20.9682 12.5747 21.807 13.1786 22.2095 13.7154C22.6121 14.2522 23.0483 14.6212 23.216 14.5205C23.3502 14.4199 23.1825 13.9502 22.8134 13.4805C22.3773 12.9102 22.1424 12.105 22.1424 11.1657C22.1424 10.2934 21.9747 9.68951 21.7734 9.68951C21.505 9.68951 21.4379 10.1592 21.5721 11.0315Z" fill="black"/>
<path d="M65.1177 12.2058C64.3796 13.0109 63.7422 13.8832 63.7422 14.1181C63.7757 14.3529 64.3796 13.8832 65.0841 13.078C65.8222 12.2729 66.4261 11.669 66.4261 11.7361C66.4261 11.8032 66.1242 12.6755 65.7551 13.6148C64.9835 15.6948 65.2854 15.8961 67.2648 14.5542C67.9358 14.051 68.5732 13.749 68.6403 13.8161C68.7074 13.8832 68.3048 14.5542 67.7345 15.3258C67.0971 16.1981 66.8622 16.7349 67.1642 16.7349C67.399 16.7349 68.1035 15.9632 68.7074 15.0574C70.3513 12.5077 70.0829 12.0716 67.768 13.5477C67.03 14.0174 66.3925 14.3864 66.2919 14.3864C66.2248 14.3864 66.359 13.8161 66.6274 13.1116C67.1306 11.669 67.2313 10.6961 66.7951 10.6961C66.6274 10.6961 65.8893 11.367 65.1177 12.2058Z" fill="black"/>
<path d="M39.0839 12.1719C38.9161 12.239 37.6077 12.5745 36.2322 12.8764C21.2023 16.2984 10.7016 31.1605 12.379 46.593C13.6874 58.7041 21.4036 68.6681 32.676 72.9288C39.2181 75.3779 47.3704 75.4786 54.0131 73.1637C63.91 69.7417 71.6598 61.1197 74.2095 50.7531C75.2495 46.4924 75.216 40.2187 74.176 36.0251C71.9282 27.1011 65.6546 19.2507 57.5357 15.2248C53.0066 12.9771 50.0879 12.3061 44.2839 12.1719C41.6 12.1048 39.2852 12.1048 39.0839 12.1719ZM51.0273 13.3125C61.9977 16.1978 70.4185 24.4172 73.4714 35.1864C74.4108 38.4071 74.7463 44.9156 74.176 48.4717C72.1295 61.0861 62.3668 71.2179 49.6518 73.8347C45.5924 74.6734 39.7549 74.5056 35.729 73.4656C27.3418 71.2514 19.8604 65.0784 15.9352 57.1609C13.4526 52.1286 12.9158 49.6795 12.9158 43.4059C12.9158 38.8768 13.05 37.6355 13.6874 35.4212C17.0758 23.612 26.3353 15.1577 38.3458 12.8429C41.6 12.239 47.7059 12.4738 51.0273 13.3125Z" fill="black"/>
<path d="M37.2395 24.6187C37.2395 28.0406 37.1389 30.8252 37.0382 30.8252C36.8705 30.8252 32.4085 27.7387 28.4497 24.8871L26.9065 23.7799L23.4174 28.7116C21.5051 31.4626 19.8277 33.8446 19.727 34.0459C19.5928 34.2472 22.0754 36.2266 25.8329 38.8434C29.3555 41.2924 32.2072 43.3389 32.2072 43.406C32.2072 43.4731 30.664 44.6473 28.7852 45.9557C26.8729 47.2977 24.0213 49.3106 22.4109 50.4513L19.4922 52.5313L22.8471 57.3623C24.6923 60.0127 26.4032 62.3611 26.6045 62.596C26.9065 62.8979 28.1142 62.1934 31.9724 59.4759C34.6898 57.5636 37.0047 55.9868 37.0718 55.9868C37.1724 55.9868 37.2395 58.7714 37.2395 62.1934V68.3999H43.6138H49.9881V62.1934C49.9881 58.7714 50.0552 55.9868 50.1558 55.9868C50.2565 55.9868 52.5713 57.5636 55.2888 59.4759C59.0798 62.1934 60.3211 62.8979 60.6231 62.596C61.2269 61.9921 67.8025 52.5648 67.7019 52.4642C67.6348 52.3971 64.9509 50.5184 61.7302 48.2706C58.5095 46.0228 55.6578 43.9763 55.423 43.7415C55.054 43.406 56.094 42.5337 61.1263 39.0447C64.5147 36.6962 67.3664 34.6498 67.5341 34.5491C67.6683 34.4149 67.1986 33.4756 66.4941 32.4691C65.7896 31.4626 64.1121 29.1142 62.8037 27.2355L60.3882 23.8135L55.3895 27.3026C52.6384 29.2484 50.29 30.8252 50.1894 30.8252C50.0887 30.8252 49.9881 28.0406 49.9881 24.6187V18.4121H43.6138H37.2395V24.6187ZM45.5596 24.6522C46.3313 25.189 46.3313 25.189 46.0964 31.1942L45.8616 37.1995L47.2706 38.7092C49.2836 40.8899 49.0487 42.4666 46.3313 44.9157C45.3248 45.8551 45.2912 45.9557 45.2912 48.7738C45.2912 51.3906 45.3919 51.7932 46.1635 52.8332C46.7003 53.5042 47.1364 54.5778 47.2035 55.45C47.3713 56.7585 47.2706 57.0268 46.1971 58.2011C45.2577 59.2411 44.9893 59.8785 44.788 61.4888C44.5867 63.334 44.6203 63.5018 45.6267 64.7431C46.7003 66.085 46.6667 66.4876 45.5596 65.4812C44.9893 64.9779 44.8887 64.9779 44.6203 65.3805C44.3519 65.7831 44.2848 65.7495 44.2848 65.1792C44.2848 64.8102 43.9157 64.1392 43.4461 63.7031C42.3725 62.6966 42.3054 60.8179 43.3119 59.543C43.9157 58.7714 43.9828 58.2682 43.9157 55.8862C43.8151 53.3365 43.748 53.0345 42.7415 51.9274C42.1712 51.2564 41.5002 50.1829 41.2989 49.5119C40.9634 48.4719 40.997 48.1364 41.5673 47.0293C41.9364 46.2912 42.4731 45.5196 42.7415 45.2847C43.1441 44.9493 43.2783 44.1776 43.2783 42.0976V39.3802L41.5673 38.3737C39.2525 37.0317 38.246 35.4885 38.246 33.4085C38.246 32.5026 38.4137 31.4626 38.615 31.06C39.286 29.7852 40.6615 28.5103 41.6344 28.309C42.5402 28.1077 42.6073 27.9735 42.6073 26.6316C42.6073 25.4909 42.7751 25.0548 43.3454 24.6522C44.2848 23.9812 44.6203 23.9812 45.5596 24.6522Z" fill="black"/>
<path d="M45.627 41.2256C45.627 41.8294 45.7611 42.1985 45.9624 42.0643C46.1637 41.9636 46.2979 41.5611 46.2979 41.2256C46.2979 40.8901 46.1637 40.4875 45.9624 40.3868C45.7611 40.2526 45.627 40.6217 45.627 41.2256Z" fill="black"/>
<path d="M16.8404 13.4136C15.7668 14.3866 15.5319 15.2588 16.6055 14.3866C17.0081 14.0511 17.3436 14.2524 18.5849 15.5943C19.4907 16.6008 20.0946 17.0369 20.1281 16.7014C20.1281 16.433 19.5914 15.695 18.9539 15.0575C17.8133 13.9504 17.4442 13.0446 18.1152 13.0446C18.3165 13.0446 18.4507 12.8769 18.4507 12.7091C18.4507 12.1388 18.0146 12.3401 16.8404 13.4136Z" fill="black"/>
<path d="M69.4466 16.2311C67.9704 17.7408 67.7691 18.8144 69.2117 17.4724L70.0169 16.7343L70.6208 17.4053C70.9563 17.7743 71.2917 18.0092 71.3924 17.9085C71.493 17.8079 71.2917 17.4389 70.9563 17.0698C70.3859 16.4324 70.3524 16.3317 70.8892 15.8285C71.3924 15.2917 71.493 15.3253 72.0634 15.8285C73.0363 16.7008 73.3382 16.4995 72.466 15.5601C72.0298 15.0904 71.493 14.7214 71.2917 14.7214C71.0905 14.7214 70.2517 15.3924 69.4466 16.2311Z" fill="black"/>
<path d="M13.9898 16.2647C13.2852 17.2376 13.3859 17.4725 15.4995 19.1499L16.8414 20.1899L17.7137 19.3177C18.7872 18.2441 18.4182 17.6738 17.3446 18.6802C16.7408 19.2506 16.4724 19.3177 16.1704 19.0157C15.6336 18.479 15.6672 17.9086 16.2711 17.4054C16.573 17.1705 16.7072 16.9022 16.6066 16.8015C16.5059 16.7009 16.1369 16.9022 15.7678 17.2376C15.2311 17.7409 15.0298 17.7744 14.5936 17.4054C14.124 17.0028 14.1575 16.8686 14.7949 16.1641C15.3317 15.6273 15.3988 15.3925 15.0633 15.3925C14.7949 15.3925 14.3252 15.795 13.9898 16.2647Z" fill="black"/>
<path d="M11.7748 19.0161C11.3723 19.5865 11.0703 20.0897 11.0703 20.1903C11.0703 20.5594 14.7271 23.0755 14.8949 22.8072C14.9955 22.6394 14.6936 22.2704 14.2239 21.9349C13.4187 21.3981 13.3852 21.331 13.922 20.5594C14.5258 19.62 14.2575 19.4858 13.3516 20.291C12.882 20.7607 12.6471 20.7607 12.2781 20.4252C11.8419 20.0897 11.8419 19.922 12.3116 19.2174C13.0832 18.0097 12.6136 17.8419 11.7748 19.0161Z" fill="black"/>
<path d="M71.8606 18.848C70.0825 20.7268 71.6928 23.2429 74.0412 22.27C75.7858 21.5319 76.3897 19.6867 75.2154 18.6467C74.3096 17.8416 72.7328 17.9422 71.8606 18.848ZM75.0812 19.7874C75.2825 21.5319 72.6322 22.639 71.827 21.1293C71.2567 20.1229 72.5651 18.6803 73.9406 18.8145C74.7793 18.8816 75.0141 19.0829 75.0812 19.7874Z" fill="black"/>
<path d="M75.0153 23.0085C73.9082 23.6794 73.1701 24.2833 73.405 24.384C73.6063 24.4511 74.1095 24.3169 74.5121 24.1156C75.6192 23.5117 75.9882 24.384 75.0824 25.3569C74.6798 25.793 74.4785 26.2291 74.6127 26.3633C74.7469 26.5311 75.2166 26.2291 75.6192 25.7595C76.0218 25.2898 76.525 24.9543 76.7599 25.0549C77.3973 25.2562 78.1689 24.4846 78.1689 23.6459C78.1354 23.0085 77.4644 21.7671 77.1289 21.7671C77.0618 21.7671 76.0889 22.3375 75.0153 23.0085ZM77.4979 23.4446C77.4979 24.3504 76.8605 24.6188 76.2231 23.9814C75.7198 23.5117 75.7198 23.411 76.3237 22.9749C77.0953 22.4046 77.4979 22.5723 77.4979 23.4446Z" fill="black"/>
<path d="M9.19251 22.8066C9.09187 22.9744 9.5951 23.8466 10.2996 24.6854C11.0041 25.5576 11.6751 26.3964 11.8093 26.5976C11.9435 26.7989 12.1448 26.8325 12.279 26.6983C12.4132 26.5976 12.3126 26.2286 12.0777 25.9602C11.3732 25.0879 12.1448 23.8131 13.2184 24.0144C13.7216 24.115 14.0906 24.0479 14.0906 23.8466C14.0906 23.6453 13.2184 23.3099 12.1784 23.1086C11.1048 22.9073 10.0648 22.6724 9.82994 22.6053C9.5951 22.5382 9.32671 22.6053 9.19251 22.8066ZM11.5409 23.7124C11.608 23.8466 11.5745 24.1486 11.4403 24.3834C11.2725 24.6854 11.0377 24.6183 10.568 24.115C9.96414 23.4776 9.96414 23.4441 10.6687 23.4441C11.0377 23.4441 11.4403 23.5782 11.5409 23.7124Z" fill="black"/>
<path d="M79.0082 25.793C79.176 26.3633 78.9411 26.5981 77.3644 27.3362C76.3243 27.8059 75.5527 28.3427 75.6534 28.5104C75.7876 28.6782 76.5927 28.4433 77.4985 27.9736C79.4108 27.0007 79.847 26.9336 79.847 27.6381C79.847 27.9065 80.0147 28.1414 80.216 28.1414C80.4508 28.1414 80.4844 27.9065 80.3502 27.5375C80.216 27.2356 79.9476 26.5646 79.7799 26.0278C79.4108 24.9878 78.6728 24.7529 79.0082 25.793Z" fill="black"/>
<path d="M7.24574 26.3298C6.54122 28.1414 7.74898 29.2485 9.19158 28.1079C9.69481 27.7053 10.2987 27.504 10.5671 27.6046C11.1374 27.8059 11.2381 28.6782 10.7348 28.9801C10.2987 29.2485 10.2987 29.8188 10.7348 29.8188C11.3723 29.8188 11.8419 28.4433 11.4394 27.6046C11.0032 26.6317 10.2987 26.5982 9.05738 27.4704C8.31931 28.0072 8.05092 28.0408 7.78253 27.7053C7.54768 27.4369 7.54768 27.1014 7.71543 26.7995C8.11801 26.162 8.11801 25.793 7.74898 25.793C7.58123 25.793 7.34639 26.0278 7.24574 26.3298Z" fill="black"/>
<path d="M8.05205 54.8463C8.05205 55.2153 7.85076 55.2824 7.41463 55.1482C6.50881 54.8798 6.13977 55.6515 6.87784 56.2218C7.48172 56.6579 7.48172 56.6579 6.87784 57.0941C6.13977 57.6644 6.50881 58.4696 7.41463 58.2347C7.81721 58.1341 8.05205 58.2347 8.05205 58.5367C8.05205 58.8051 8.35399 59.0063 8.72303 59.0063C9.12562 59.0063 9.39401 58.7715 9.39401 58.4696C9.39401 58.0334 9.49465 57.9999 9.86369 58.3018C10.4676 58.8051 10.9037 57.765 10.3669 57.1276C10.065 56.7586 10.0985 56.5237 10.4005 56.1547C10.8702 55.5844 10.5347 54.8463 9.86369 55.1147C9.5953 55.2153 9.39401 55.0811 9.39401 54.8127C9.39401 54.5444 9.09207 54.3095 8.72303 54.3095C8.35399 54.3095 8.05205 54.5444 8.05205 54.8463Z" fill="black"/>
<path d="M77.8328 54.8127C77.8328 55.0811 77.6315 55.2153 77.3631 55.1147C76.6922 54.8463 76.3567 55.5844 76.8264 56.1547C77.1283 56.5237 77.1619 56.7586 76.8599 57.1276C76.3231 57.765 76.7593 58.8051 77.3631 58.3018C77.7322 57.9999 77.8328 58.0334 77.8328 58.4696C77.8328 58.7715 78.1012 59.0063 78.5038 59.0063C78.8728 59.0063 79.1748 58.8051 79.1748 58.5367C79.1748 58.2347 79.4096 58.1341 79.8122 58.2347C80.718 58.4696 81.0871 57.6644 80.349 57.0941C79.7451 56.6579 79.7451 56.6579 80.349 56.2218C81.0871 55.6515 80.718 54.8798 79.8122 55.1482C79.3761 55.2824 79.1748 55.2153 79.1748 54.8463C79.1748 54.5444 78.8728 54.3095 78.5038 54.3095C78.1348 54.3095 77.8328 54.5444 77.8328 54.8127Z" fill="black"/>
<path d="M23.4847 71.0166C23.4847 71.1508 23.7866 71.4528 24.1556 71.6876C25.0615 72.2244 25.0279 72.4592 23.6524 74.6064C22.2098 76.8541 21.9414 77.458 22.4447 77.458C22.6459 77.458 23.5182 76.418 24.3569 75.1096C25.8331 72.7947 25.8666 72.7612 26.6718 73.298C27.1079 73.5663 27.5441 73.667 27.6447 73.4992C27.7454 73.3315 27.0073 72.627 26.0008 71.956C24.1892 70.7818 23.4847 70.5134 23.4847 71.0166Z" fill="black"/>
<path d="M61.0592 72.1575C60.4217 72.5601 59.8179 72.9292 59.7508 72.9627C59.6501 73.0634 62.3676 77.6931 62.9379 78.4312C63.1057 78.5989 66.0915 76.6531 66.0915 76.3511C66.0915 75.9486 65.6554 76.0828 64.5147 76.7873L63.4411 77.4247L62.9044 76.6866C62.1998 75.6802 62.2669 75.2776 63.2399 74.8414C63.7095 74.6402 64.0786 74.3047 64.0786 74.1034C64.0786 73.6337 63.676 73.7008 62.8037 74.3047C61.9985 74.875 61.5624 74.7408 61.0592 73.7679C60.7572 73.2311 60.8914 73.0298 61.7302 72.5937C62.2669 72.3253 62.7366 71.9227 62.7366 71.755C62.7366 71.2517 62.3676 71.3524 61.0592 72.1575Z" fill="black"/>
<path d="M27.006 76.2839C26.3015 77.8607 25.7983 79.2027 25.8654 79.2698C26.1002 79.5046 28.5828 80.4775 28.8848 80.4775C29.6564 80.4775 29.0525 79.8066 28.0125 79.4711C26.6705 79.0349 26.6705 79.0685 27.3415 77.7601C27.8448 76.8207 27.8783 76.7872 28.8512 77.2904C29.9919 77.8943 30.1932 77.8943 30.1932 77.4246C30.1932 77.2568 29.757 76.9214 29.1867 76.7536C28.0796 76.351 27.9454 75.9149 28.6164 74.9755C29.0525 74.4052 29.1196 74.4052 30.1261 74.9084C30.7635 75.2439 31.2332 75.311 31.3674 75.1097C31.5351 74.8413 28.9854 73.4323 28.3815 73.4323C28.3144 73.4323 27.7106 74.7071 27.006 76.2839Z" fill="black"/>
<path d="M57.704 73.9354C57.704 74.036 58.1401 75.1096 58.6769 76.2838C59.2473 77.4916 59.6163 78.4645 59.5492 78.4645C59.4485 78.4645 58.3414 77.6929 57.033 76.72C55.4562 75.6128 54.5504 75.1096 54.3156 75.3444C53.9465 75.7135 56.2279 81.4839 56.7311 81.4839C57.2008 81.4839 57.1001 81.1148 56.1943 78.8671C55.7246 77.7264 55.3556 76.72 55.3556 76.6529C55.3556 76.5522 56.3621 77.2232 57.5698 78.129C59.6498 79.6722 60.7234 80.1755 60.7234 79.5716C60.7234 78.8 58.4756 73.7677 58.1401 73.7677C57.9053 73.7677 57.704 73.8348 57.704 73.9354Z" fill="black"/>
<path d="M32.2744 78.4981C30.4963 81.182 30.1608 82.524 31.7041 80.7459C32.4086 79.9072 32.6099 79.8736 33.5157 80.1756C34.2873 80.444 34.5557 80.7459 34.6228 81.5846C34.6899 82.155 34.9248 82.6582 35.126 82.7588C35.4615 82.8595 35.5286 82.155 35.3609 79.7394C35.2602 78.0285 35.126 76.4181 35.0254 76.1833C34.757 75.2774 33.9518 75.9149 32.2744 78.4981ZM34.5557 78.4981C34.5557 79.7394 34.4886 79.8401 33.8176 79.6052C32.7441 79.3033 32.7441 79.3033 33.4151 78.1626C34.2538 76.7536 34.5557 76.8542 34.5557 78.4981Z" fill="black"/>
<path d="M49.7872 76.4514C46.8684 77.6256 47.7742 82.8257 50.8607 82.8257C52.6053 82.8257 53.6788 81.6179 53.6788 79.6385C53.6788 78.3637 53.5111 77.894 52.7059 77.0888C51.6995 76.0824 51.0285 75.9482 49.7872 76.4514ZM52.0685 77.7263C52.404 77.9947 52.7395 78.7327 52.8737 79.3366C53.444 82.4231 49.8543 83.2954 49.0156 80.276C48.613 78.7998 49.0156 77.5585 50.0556 77.1559C50.8607 76.854 51.1627 76.9211 52.0685 77.7263Z" fill="black"/>
<path d="M38.4122 77.1896C38.0767 78.196 37.5399 82.8929 37.7412 83.0942C38.0767 83.4632 38.5799 82.3896 38.6135 81.1483C38.6135 80.5109 38.7477 79.6051 38.8819 79.1354C39.0832 78.4309 39.2173 78.6993 39.7206 80.7457C40.0561 82.0877 40.4587 83.2619 40.6264 83.3625C40.7941 83.4632 41.4651 82.4567 42.1025 81.0812L43.2432 78.6322V81.0477C43.2768 84.4697 43.9477 84.5703 44.0148 81.1819C44.0484 79.6722 44.0819 78.196 44.0819 77.8941C44.1155 77.5586 43.8806 77.2567 43.5787 77.1896C43.2097 77.1225 42.7064 77.7934 41.9348 79.538L40.8277 81.987L40.1567 79.3702C39.7206 77.6592 39.3515 76.787 39.0496 76.787C38.7812 76.787 38.4793 76.9883 38.4122 77.1896Z" fill="black"/>
</svg>
