<svg width="58" height="62" viewBox="0 0 58 62" fill="none" xmlns="http://www.w3.org/2000/svg">
<path d="M21.3917 7.69799C21.3917 11.9423 21.2712 15.396 21.1508 15.396C20.9501 15.396 15.6109 11.5678 10.8738 8.03087L9.02719 6.65771L4.85217 12.7745C2.56394 16.1866 0.556718 19.1409 0.436284 19.3906C0.275707 19.6403 3.24639 22.0953 7.74257 25.3409C11.9577 28.3785 15.37 30.9168 15.37 31C15.37 31.0832 13.5234 32.5396 11.2753 34.1624C8.98704 35.8268 5.57477 38.3235 3.64784 39.7383L0.155273 42.3181L4.16971 48.3101C6.37766 51.5973 8.42502 54.5101 8.66589 54.8013C9.02719 55.1758 10.4724 54.302 15.089 50.9315C18.3407 48.5597 21.1107 46.604 21.1909 46.604C21.3114 46.604 21.3917 50.0577 21.3917 54.302V62H29.0191H36.6465V54.302C36.6465 50.0577 36.7268 46.604 36.8473 46.604C36.9677 46.604 39.7377 48.5597 42.9894 50.9315C47.5257 54.302 49.011 55.1758 49.3723 54.8013C50.0949 54.0523 57.9632 42.3597 57.8428 42.2349C57.7625 42.1517 54.551 39.8215 50.6971 37.0336C46.8432 34.2456 43.431 31.7074 43.1499 31.4161C42.7084 31 43.9528 29.9181 49.9745 25.5906C54.0291 22.6779 57.4413 20.1396 57.6421 20.0148C57.8026 19.8483 57.2406 18.6832 56.3976 17.4349C55.5546 16.1866 53.5473 13.2738 51.9817 10.9436L49.0913 6.69933L43.1098 11.0268C39.818 13.4403 37.0078 15.396 36.8874 15.396C36.767 15.396 36.6465 11.9423 36.6465 7.69799V0H29.0191H21.3917V7.69799ZM31.3475 7.7396C32.2708 8.40537 32.2708 8.40536 31.9898 15.8537L31.7088 23.302L33.3948 25.1745C35.8035 27.8792 35.5225 29.8349 32.2708 32.8725C31.0665 34.0376 31.0263 34.1624 31.0263 37.6577C31.0263 40.9034 31.1468 41.4027 32.0701 42.6926C32.7124 43.5248 33.2343 44.8564 33.3146 45.9383C33.5153 47.5611 33.3948 47.894 32.1102 49.3503C30.9862 50.6403 30.665 51.4309 30.4242 53.4282C30.1833 55.7168 30.2234 55.9248 31.4278 57.4644C32.7124 59.1289 32.6722 59.6282 31.3475 58.3799C30.665 57.7557 30.5446 57.7557 30.2234 58.255C29.9023 58.7544 29.822 58.7128 29.822 58.0054C29.822 57.5477 29.3804 56.7154 28.8184 56.1745C27.5338 54.9262 27.4535 52.596 28.6578 51.0148C29.3804 50.0577 29.4607 49.4336 29.3804 46.4792C29.26 43.3168 29.1797 42.9423 27.9754 41.5691C27.2929 40.7369 26.49 39.4054 26.2491 38.5732C25.8477 37.2832 25.8878 36.8671 26.5703 35.494C27.0119 34.5785 27.6542 33.6215 27.9754 33.3302C28.4571 32.9141 28.6177 31.957 28.6177 29.3772V26.0067L26.5703 24.7584C23.8003 23.094 22.596 21.1799 22.596 18.6C22.596 17.4765 22.7967 16.1866 23.0376 15.6872C23.8405 14.106 25.4864 12.5248 26.6506 12.2752C27.7345 12.0255 27.8148 11.8591 27.8148 10.1946C27.8148 8.77987 28.0155 8.23893 28.698 7.7396C29.822 6.90738 30.2234 6.90738 31.3475 7.7396Z" fill="#474747"/>
</svg>
