<svg width="20" height="20" viewBox="0 0 20 20" fill="none" xmlns="http://www.w3.org/2000/svg">
<rect width="20" height="20" rx="3" fill="#F7CCCE"/>
<path d="M16.6663 16.1667H15.9997V12C15.9997 8.68667 13.313 6 9.99967 6C6.68634 6 3.99967 8.68667 3.99967 12V16.1667H3.33301C3.05967 16.1667 2.83301 16.3933 2.83301 16.6667C2.83301 16.94 3.05967 17.1667 3.33301 17.1667H16.6663C16.9397 17.1667 17.1663 16.94 17.1663 16.6667C17.1663 16.3933 16.9397 16.1667 16.6663 16.1667Z" fill="#CE666B"/>
<path d="M10 4.49992C9.72667 4.49992 9.5 4.27325 9.5 3.99992V3.33325C9.5 3.05992 9.72667 2.83325 10 2.83325C10.2733 2.83325 10.5 3.05992 10.5 3.33325V3.99992C10.5 4.27325 10.2733 4.49992 10 4.49992Z" fill="#CE666B"/>
<path d="M5.33297 5.83321C5.2063 5.83321 5.07964 5.78655 4.97964 5.68655L4.31297 5.01988C4.11964 4.82655 4.11964 4.50655 4.31297 4.31321C4.5063 4.11988 4.8263 4.11988 5.01964 4.31321L5.6863 4.97988C5.87964 5.17321 5.87964 5.49321 5.6863 5.68655C5.5863 5.78655 5.45964 5.83321 5.33297 5.83321Z" fill="#CE666B"/>
<path d="M14.6663 5.83321C14.5396 5.83321 14.413 5.78655 14.313 5.68655C14.1196 5.49321 14.1196 5.17321 14.313 4.97988L14.9796 4.31321C15.173 4.11988 15.493 4.11988 15.6863 4.31321C15.8796 4.50655 15.8796 4.82655 15.6863 5.01988L15.0196 5.68655C14.9196 5.78655 14.793 5.83321 14.6663 5.83321Z" fill="#CE666B"/>
</svg>
