<svg width="20" height="20" viewBox="0 0 20 20" fill="none" xmlns="http://www.w3.org/2000/svg">
<rect width="20" height="20" rx="3" fill="#DDEED0"/>
<path d="M9.99975 11.5867C10.876 11.5867 11.5864 10.8763 11.5864 10C11.5864 9.12371 10.876 8.41333 9.99975 8.41333C9.12346 8.41333 8.41309 9.12371 8.41309 10C8.41309 10.8763 9.12346 11.5867 9.99975 11.5867Z" fill="#60DC00"/>
<path d="M15.3332 14.4999C15.2265 14.4999 15.1265 14.4666 15.0332 14.3999C14.8132 14.2333 14.7665 13.9199 14.9332 13.6999C15.7399 12.6266 16.1665 11.3466 16.1665 9.99994C16.1665 8.65327 15.7399 7.37327 14.9332 6.29994C14.7665 6.07994 14.8132 5.7666 15.0332 5.59994C15.2532 5.43327 15.5665 5.47994 15.7332 5.69994C16.6732 6.9466 17.1665 8.43327 17.1665 9.99994C17.1665 11.5666 16.6732 13.0533 15.7332 14.2999C15.6332 14.4333 15.4865 14.4999 15.3332 14.4999Z" fill="#60DC00"/>
<path d="M4.66634 14.4999C4.51301 14.4999 4.36634 14.4333 4.26634 14.2999C3.32634 13.0533 2.83301 11.5666 2.83301 9.99994C2.83301 8.43327 3.32634 6.9466 4.26634 5.69994C4.43301 5.47994 4.74634 5.43327 4.96634 5.59994C5.18634 5.7666 5.23301 6.07994 5.06634 6.29994C4.25967 7.37327 3.83301 8.65327 3.83301 9.99994C3.83301 11.3466 4.25967 12.6266 5.06634 13.6999C5.23301 13.9199 5.18634 14.2333 4.96634 14.3999C4.87967 14.4666 4.77301 14.4999 4.66634 14.4999Z" fill="#60DC00"/>
<path d="M13.2004 12.9C13.0937 12.9 12.9937 12.8667 12.9004 12.8C12.6804 12.6334 12.6337 12.32 12.8004 12.1C13.2604 11.4934 13.5004 10.7667 13.5004 10C13.5004 9.23337 13.2604 8.5067 12.8004 7.90004C12.6337 7.68004 12.6804 7.3667 12.9004 7.20004C13.1204 7.03337 13.4337 7.08004 13.6004 7.30004C14.187 8.0867 14.5004 9.02004 14.5004 10C14.5004 10.98 14.187 11.92 13.6004 12.7C13.5004 12.8334 13.3537 12.9 13.2004 12.9Z" fill="#60DC00"/>
<path d="M6.8 12.9C6.64667 12.9 6.5 12.8334 6.4 12.7C5.81333 11.92 5.5 10.98 5.5 10C5.5 9.02004 5.81333 8.08004 6.4 7.30004C6.56667 7.08004 6.88 7.03337 7.1 7.20004C7.32 7.3667 7.36667 7.68004 7.2 7.90004C6.74 8.5067 6.5 9.23337 6.5 10C6.5 10.7667 6.74 11.4934 7.2 12.1C7.36667 12.32 7.32 12.6334 7.1 12.8C7.01333 12.8667 6.90667 12.9 6.8 12.9Z" fill="#60DC00"/>
</svg>
