<svg width="20" height="20" viewBox="0 0 20 20" fill="none" xmlns="http://www.w3.org/2000/svg">
<rect width="20" height="20" rx="3" fill="#CAF2F8"/>
<path fill-rule="evenodd" clip-rule="evenodd" d="M5.15384 5C3.96431 5 3 5.92341 3 7.0625V12.5625C3 13.8914 4.12503 14.9688 5.51282 14.9688H6.276C6.4354 15.5618 6.99759 16 7.66666 16C8.33573 16 8.89792 15.5618 9.05732 14.9688H12.3786C12.538 15.5618 13.1001 16 13.7692 16C14.4467 16 15.0147 15.5507 15.1657 14.9462C16.2037 14.7984 17 13.9414 17 12.9062L17 10.8572C17.0001 10.5285 17.0002 10.3004 16.9378 10.0794C16.8754 9.8584 16.7553 9.66143 16.5823 9.3776L15.1537 7.03237C14.862 6.55301 14.6597 6.22056 14.3429 6.00504C14.2489 5.94111 14.1487 5.88599 14.0437 5.84046C13.7211 5.70065 13.359 5.68837 12.8591 5.68751C12.611 5.27679 12.1473 5 11.6154 5H5.15384ZM7.66666 13.25C6.99759 13.25 6.4354 13.6882 6.276 14.2812H5.51282C4.52154 14.2812 3.71795 13.5117 3.71795 12.5625V11.5312H11.6154C12.4084 11.5312 13.0513 10.9156 13.0513 10.1562V6.37718C13.4284 6.38285 13.5991 6.4024 13.7476 6.46678C13.8106 6.4941 13.8707 6.52716 13.9271 6.56552C14.1016 6.68421 14.2257 6.87347 14.5725 7.44284L14.969 8.09375H14.4872C14.0907 8.09375 13.7692 8.40155 13.7692 8.78125V10.8438C13.7692 11.4133 14.2514 11.875 14.8461 11.875H16.282V12.9062C16.282 13.5654 15.7976 14.1163 15.1511 14.2502C14.9807 13.673 14.4265 13.25 13.7692 13.25C13.1001 13.25 12.538 13.6882 12.3786 14.2812H9.05732C8.89792 13.6882 8.33573 13.25 7.66666 13.25ZM11.6154 10.8438H3.71795V7.0625C3.71795 6.30311 4.36082 5.6875 5.15384 5.6875H11.6154C11.9274 5.6875 12.1938 5.87832 12.2926 6.1458C12.3189 6.21704 12.3333 6.29403 12.3333 6.375V10.1562C12.3333 10.5359 12.0119 10.8438 11.6154 10.8438ZM14.4872 8.78125H15.3878L15.9397 9.68727C16.1435 10.0218 16.2102 10.1368 16.2447 10.2588C16.2792 10.3809 16.282 10.5124 16.282 10.8997V11.1875H14.8461C14.6479 11.1875 14.4872 11.0336 14.4872 10.8438V8.78125Z" fill="#5EB9C7"/>
</svg>
